<?xml version="1.0" encoding="UTF-8"?>
<!DOCTYPE svg PUBLIC "-//W3C//DTD SVG 1.0//EN" "http://www.w3.org/TR/2001/REC-SVG-20010904/DTD/svg10.dtd">
<!-- Creator: CorelDRAW X7 -->
<svg xmlns="http://www.w3.org/2000/svg" xml:space="preserve" width="1000px" height="1000px" version="1.0" style="shape-rendering:geometricPrecision; text-rendering:geometricPrecision; image-rendering:optimizeQuality; fill-rule:evenodd; clip-rule:evenodd"
viewBox="0 0 213 213"
 xmlns:xlink="http://www.w3.org/1999/xlink">
 <defs>
  <style type="text/css">
   <![CDATA[
    .fil1 {fill:none}
    .fil0 {fill:#0066B3}
   ]]>
  </style>
 </defs>
 <g id="Layer_x0020_1">
  <metadata id="CorelCorpID_0Corel-Layer"/>
  <path class="fil0" d="M6 154c5,19 20,35 39,39 4,1 9,2 13,2l96 0c0,0 1,0 1,0 25,0 46,-17 52,-41 1,-4 2,-8 2,-13 0,0 0,0 0,0 0,-5 -1,-10 -2,-14 -6,-23 -27,-41 -53,-41 0,0 0,0 0,0l-68 0 0 41 16 0 52 0c8,0 14,6 14,14 0,7 -6,13 -14,13l-52 0 -43 0c-8,0 -14,-6 -14,-13l0 -14 0 -41 0 -13c0,-8 6,-14 14,-14l95 0 27 0 0 -41 -123 0c-4,0 -8,1 -13,2 -19,5 -34,20 -39,39 -1,4 -1,9 -1,13l0 14 0 41 0 14c0,5 0,9 1,13z"/>
  <rect class="fil1" width="213" height="213"/>
 </g>
</svg>
